<svg xmlns="http://www.w3.org/2000/svg" viewBox="0 0 512 512"><g fill="#547580"><path d="M256 379.586v123.586a8.828 8.828 0 0 1-8.828 8.828H117.76L256 379.586zM388.414 256h114.759a8.828 8.828 0 0 0 8.828-8.828V35.31L388.414 256z"/></g><path d="M476.69 0H52.966C23.713 0 0 23.713 0 52.966V476.69C0 496.191 15.809 512 35.31 512h82.477a35.31 35.31 0 0 0 24.968-10.342l358.902-358.902A35.306 35.306 0 0 0 512 117.788V35.31C512 15.809 496.191 0 476.69 0zM88.276 459.034c-19.501 0-35.31-15.809-35.31-35.31 0-19.501 15.809-35.31 35.31-35.31s35.31 15.809 35.31 35.31c0 19.502-15.809 35.31-35.31 35.31zm0-335.448c-19.501 0-35.31-15.809-35.31-35.31s15.809-35.31 35.31-35.31 35.31 15.809 35.31 35.31a35.31 35.31 0 0 1-35.31 35.31zm335.448 0c-19.501 0-35.31-15.809-35.31-35.31s15.809-35.31 35.31-35.31c19.501 0 35.31 15.809 35.31 35.31a35.31 35.31 0 0 1-35.31 35.31z" fill="#84b5cb"/></svg>