<svg xmlns="http://www.w3.org/2000/svg" viewBox="0 0 504.492 504.492"><path d="M308.567 161.452l-152.025 68.923 122.88 270.966 66.166-55.926 85.465-12.603-122.486-271.36z" fill="#2b414d"/><path d="M195.927 164.209l152.025 68.923-122.88 271.36-66.166-56.32-85.858-12.603 122.879-271.36z" fill="#475f6c"/><path d="M449.17 197.292c0 14.572-20.874 26.782-24.025 40.566-3.151 14.178 10.634 34.265 4.726 47.262-6.302 12.997-30.326 14.572-38.991 25.6s-4.726 35.446-15.754 44.505-33.083-.394-45.686 5.908-19.298 29.932-33.083 33.083c-13.391 3.151-29.538-14.966-43.717-14.966-14.178 0-30.326 18.117-43.717 14.966-13.785-3.151-20.48-26.782-33.083-33.083-12.603-6.302-35.052 3.151-45.686-5.908-11.028-9.058-7.089-33.477-15.754-44.505s-32.689-12.603-38.991-25.6c-5.908-12.603 7.877-33.083 4.726-47.262-3.938-13.785-24.812-25.994-24.812-40.566s20.874-26.782 24.025-40.566c3.151-14.178-10.634-34.265-4.726-47.262 6.302-12.997 30.326-14.572 38.991-25.6s4.726-35.446 15.754-44.505 33.083.394 45.686-5.908c12.603-6.302 19.298-29.932 33.083-33.083 13.391-3.151 29.538 14.966 43.717 14.966 14.178 0 30.326-18.117 43.717-14.966 13.785 3.151 20.48 26.782 33.083 33.083 12.603 6.302 35.052-3.151 45.686 5.908 11.028 9.058 7.089 33.477 15.754 44.505s32.689 12.603 38.991 25.6c5.908 12.603-7.877 33.083-4.726 47.262 3.938 13.785 24.812 25.994 24.812 40.566z" fill="#efc75e"/><path d="M252.247 118.523c-43.717 0-78.769 35.446-78.769 78.769s35.446 78.769 78.769 78.769c43.717 0 78.769-35.446 78.769-78.769s-35.053-78.769-78.769-78.769zm0 114.215c-19.692 0-35.446-15.754-35.446-35.446s15.754-35.446 35.446-35.446 35.446 15.754 35.446 35.446-15.754 35.446-35.446 35.446zm0-177.231c-78.375 0-141.785 63.409-141.785 141.785s63.409 141.785 141.785 141.785 141.784-63.41 141.784-141.785S330.622 55.507 252.247 55.507zm0 259.939c-65.378 0-118.154-52.775-118.154-118.154S186.868 79.138 252.247 79.138s118.154 52.775 118.154 118.154-52.776 118.154-118.154 118.154z" fill="#d7b354"/></svg>