<svg xmlns="http://www.w3.org/2000/svg" viewBox="0 0 512 512"><path d="M0 30.897V419.31h370.759v-34.842c10.646 5.305 22.607 8.36 35.31 8.36s24.664-3.054 35.31-8.36v34.842H512V30.897H0z" fill="#724530"/><path d="M485.517 313.379c0-43.882-35.566-79.448-79.448-79.448s-79.448 35.566-79.448 79.448 35.566 79.448 79.448 79.448 79.448-35.566 79.448-79.448" fill="#d3b434"/><g fill="#f8e7a1"><path d="M406.069 366.345a8.82 8.82 0 0 1-8.828-8.828 8.82 8.82 0 0 1 8.828-8.828c19.474 0 35.31-15.837 35.31-35.31a8.82 8.82 0 0 1 8.828-8.828 8.82 8.82 0 0 1 8.828 8.828c-.001 29.211-23.756 52.966-52.966 52.966M361.931 322.207a8.82 8.82 0 0 1-8.828-8.828c0-29.21 23.755-52.966 52.966-52.966a8.82 8.82 0 0 1 8.828 8.828 8.82 8.82 0 0 1-8.828 8.828c-19.474 0-35.31 15.837-35.31 35.31a8.82 8.82 0 0 1-8.828 8.828"/></g><path d="M326.621 313.379c0-43.882 35.566-79.448 79.448-79.448 30.791 0 57.432 17.549 70.621 43.158V101.517c-19.5 0-35.31-15.81-35.31-35.31H70.621c0 19.5-15.81 35.31-35.31 35.31V348.69c19.5 0 35.31 15.81 35.31 35.31h299.158c-25.609-13.188-43.158-39.83-43.158-70.621" fill="#ece8d8"/><path d="M406.069 392.828c-12.703 0-24.664-3.054-35.31-8.36v96.636l35.31-35.31 35.31 35.31v-96.636c-10.646 5.305-22.607 8.36-35.31 8.36" fill="#f0ce49"/><g fill="#c9b693"><path d="M308.966 128H203.034a8.82 8.82 0 0 1-8.828-8.828 8.82 8.82 0 0 1 8.828-8.828h105.931a8.82 8.82 0 0 1 8.828 8.828 8.82 8.82 0 0 1-8.827 8.828M397.241 172.138H114.759a8.82 8.82 0 0 1-8.828-8.828 8.82 8.82 0 0 1 8.828-8.828h282.483a8.82 8.82 0 0 1 8.828 8.828 8.821 8.821 0 0 1-8.829 8.828M397.241 216.276H114.759c-4.882 0-8.828-3.946-8.828-8.828s3.946-8.828 8.828-8.828h282.483c4.882 0 8.828 3.946 8.828 8.828s-3.947 8.828-8.829 8.828M291.31 260.414H167.724c-4.882 0-8.828-3.946-8.828-8.828s3.946-8.828 8.828-8.828H291.31c4.882 0 8.828 3.946 8.828 8.828s-3.946 8.828-8.828 8.828M132.414 260.414h-17.655c-4.882 0-8.828-3.946-8.828-8.828s3.946-8.828 8.828-8.828h17.655c4.882 0 8.828 3.946 8.828 8.828s-3.947 8.828-8.828 8.828M185.379 304.552h-70.621a8.82 8.82 0 0 1-8.828-8.828 8.82 8.82 0 0 1 8.828-8.828h70.621a8.82 8.82 0 0 1 8.828 8.828 8.82 8.82 0 0 1-8.828 8.828M291.31 304.552h-70.62a8.82 8.82 0 0 1-8.828-8.828 8.82 8.82 0 0 1 8.828-8.828h70.621a8.82 8.82 0 0 1 8.828 8.828 8.821 8.821 0 0 1-8.829 8.828"/></g></svg>