<svg id="Layer_1" xmlns="http://www.w3.org/2000/svg" viewBox="0 0 290.6 64.8"><style>.st0{fill:#000}</style><title>energy_logo_small</title><g id="Layer_1-2"><path class="st0" d="M32.4 64.8C14.5 64.8 0 50.3 0 32.4S14.5 0 32.4 0s32.4 14.5 32.4 32.4-14.5 32.4-32.4 32.4zM60 32.4C60 17.1 47.6 4.8 32.4 4.8S4.8 17.1 4.8 32.4 17.1 60 32.4 60C47.6 60 60 47.6 60 32.4z"/><path class="st0" d="M38.5 42.5v-2.8H26.3v16.2h12.2v-2.8h-8.7v-4.3h8V46h-8v-3.5z"/><path class="st0" d="M47.3 36.8h7.9L32.4 5.5 9.6 36.8h7.9l-3.4 4.7-3.3-3.3v9.2H20l-3.4-3.3 7.9-10.9h-7.9l15.8-21.6 15.8 21.6h-8l7.9 10.9-3.3 3.3H54v-9.2l-3.3 3.3zM85.6 38.8c.3 1.2 1 2.3 1.9 3.2 1 .9 2.3 1.3 3.7 1.2.9 0 1.7-.1 2.5-.5.7-.3 1.3-.7 1.8-1.3.5-.5.9-1.2 1.1-1.8.3-.7.4-1.5.4-2.2v-1.6h-9.5v-6.6H97V28c0-.7-.1-1.3-.2-2s-.4-1.3-.8-1.8c-.4-.6-1-1-1.7-1.3-.9-.4-1.8-.5-2.8-.5-1.3 0-2.7.4-3.7 1.2-1 .7-1.7 1.8-2 3L78.5 24c.8-2.6 2.5-4.9 4.8-6.4 2.5-1.7 5.4-2.5 8.4-2.4 2.1-.1 4.2.3 6.1 1.1 1.6.7 2.9 1.7 4 3s1.8 2.7 2.3 4.3c.5 1.7.7 3.4.7 5.1v8.2c0 1.9-.3 3.7-.8 5.5-1 3.3-3.5 5.9-6.8 7.1-1.9.7-3.9 1-5.9 1-2.9.1-5.8-.7-8.2-2.3-2.2-1.6-3.8-3.8-4.6-6.4l7.1-3zM130.4 22v7.4H119v-15l-7.7 7.7v28.1h7.7V36h11.4v14.2h7.6V14.4l-7.6 7.6zM169.6 22.3v-6.9h-16.9l-7.7 7.7v27.1h24.6v-6.9h-16.9V36h14.4v-6.7h-14.4v-7h16.9zM199.9 21.9c-.6-1.3-1.4-2.5-2.5-3.5s-2.4-1.8-3.9-2.2c-1.6-.5-3.3-.8-5-.8H182l-7.7 7.7v27.1h7.7V37.5h6.8c1.6 0 3.2-.3 4.7-.8 1.4-.5 2.7-1.3 3.8-2.3 1.1-1 2-2.1 2.6-3.4.6-1.4 1-2.8.9-4.4.1-1.6-.3-3.2-.9-4.7zm-8.2 7.6c-.9.8-2.1 1.2-3.2 1.1H182v-8.3h6.2c1.3-.1 2.5.3 3.6 1 .9.8 1.3 2 1.2 3.2 0 1.1-.4 2.2-1.3 3zM204.7 15.4v34.8h7.7V22.3h10l6.9-6.9h-24.6zM251.6 15.4L244.4 26l-7.1 11.1h-.2V14.4l-7.7 7.7v28.1h6.9l8.8-12.8 5.1-8.2h.2v21h7.7V15.4h-6.5zM290.6 15.4v34.8h-7.7v-14h-3.5c-.6 0-1.2.1-1.8.2-.6.2-1.1.5-1.5.9-.5.5-1 1.1-1.4 1.8-.5.9-.9 1.8-1.2 2.8l-2.4 8.3H263l2.6-9.7c.3-1.2.8-2.3 1.5-3.4s1.8-1.9 3.1-2.2c-1-.3-1.8-.7-2.6-1.3-.7-.6-1.4-1.3-1.9-2.1s-.9-1.7-1.1-2.6c-.2-1-.4-1.9-.4-2.9 0-1.5.3-3.1.9-4.4.6-1.3 1.4-2.4 2.4-3.3 1.1-.9 2.3-1.6 3.6-2 1.4-.5 2.9-.7 4.4-.7l15.1-.2zm-18.2 10.7c-.1 1.1.4 2.1 1.4 2.7 1.1.5 2.3.8 3.5.7h5.8v-7.3h-6c-1.2-.1-2.4.3-3.4 1-1 .8-1.4 1.8-1.3 2.9z"/></g></svg>