<svg xmlns="http://www.w3.org/2000/svg" viewBox="0 0 64 64" width="512" height="512"><path fill="#aeddd0" d="M61 55H3V9h50l8 8v38z"/><path fill="#4a9d86" d="M61 17h-8V9l8 8zM7 13h6v38H7z"/><path fill="#fff" d="M7 31h3v2H7zM7 37h3v2H7zM7 43h3v2H7zM7 19h3v2H7zM7 25h3v2H7z"/><path fill="#4a9d86" d="M33 21v-4H19v14h3v14h26V31h5V21H33z"/><path fill="#aeddd0" d="M26 32h-4v-2h2v-4h2v6zM32 21h2v3h-2zM38 26v4h-4v-4h-2v4h-2v2h10v-6h-2zM44 30h4v2h-4z"/><path fill="#418abd" d="M38 52h-2v-4h15V34h4v2h-2v14H38v2z"/><path d="M35 36H25v10h14V36zm-6 8h-2v-6h2zm4 0h-2v-6h2zm4 0h-2v-6h2z" fill="#aeddd0"/><path fill="#418abd" d="M46 18H36v-4H18v-2h20v4h8v2zM48 16h2v2h-2z"/></svg>