<svg height="512pt" viewBox="0 -4 512 512" width="512pt" xmlns="http://www.w3.org/2000/svg"><path d="M501.164 222.77l-18.687 60.503-11.012-20.824-24.832-47.101a25.56 25.56 0 0 0-21.664-13.688 25.578 25.578 0 0 0-23.563 37.582l24.664 46.762 11.176 21.16-60.5-18.687a50.962 50.962 0 0 1-30.121-25l-8.96-16.899a51.852 51.852 0 0 1-5.802-20.48l-3.414-50.856a32.304 32.304 0 0 1 1.535-12.547l77.567-50.343a33.614 33.614 0 0 1 27.394 6.652l40.02 31.574a51.207 51.207 0 0 1 13.652 16.3l8.961 16.895a51.267 51.267 0 0 1 3.586 38.997zm0 0" fill="#2c3e50"/><path d="M484.523 220.21l-13.058 42.24-24.832-47.102a25.56 25.56 0 0 0-21.664-13.688 25.578 25.578 0 0 0-23.563 37.582l24.664 46.762-41.73-12.887a41.43 41.43 0 0 1-24.235-20.137l-7.168-13.656a40.748 40.748 0 0 1-4.69-16.469l-2.731-40.96c-.301-3.403.105-6.829 1.195-10.067l62.46-40.535a27.366 27.366 0 0 1 22.102 5.293l32.172 25.426a41.776 41.776 0 0 1 11.008 13.144l7.254 13.653a41.393 41.393 0 0 1 2.816 31.402zm0 0" fill="#35495e"/><path d="M192.512.137c.539-.07 1.078-.098 1.62-.086a50.602 50.602 0 0 1 21.93 3.926l160.43 67.242c19.047 7.945 31.461 26.55 31.488 47.191a50.7 50.7 0 0 1-4.011 19.797c-10.98 26.063-40.989 38.316-67.074 27.39l-136.446-57.09zm0 0M176.555 356.316L28.075 168.242a47.067 47.067 0 0 1-7.595-13.48 49.511 49.511 0 0 1-1.535-5.035c-.5-1.563-.87-3.16-1.11-4.782-.155-.789-.269-1.586-.343-2.386a50.382 50.382 0 0 1-.426-6.23c0-3.735.43-7.458 1.282-11.095.101-.605.242-1.203.425-1.793a35.385 35.385 0 0 1 1.11-3.668c.254-.851.597-1.793.937-2.644a41.242 41.242 0 0 1 2.477-5.207c.433-.852.918-1.68 1.45-2.473a60.228 60.228 0 0 1 3.327-4.781 52.304 52.304 0 0 1 8.45-8.36l105.984 51.54L295.082 341.3zm0 0" fill="#e57e25"/><path d="M236.078 22.496c15.879 23.399 9.781 55.238-13.617 71.117L97.023 178.738c-23.398 15.88-55.238 9.782-71.117-13.617-15.879-23.398-9.781-55.238 13.617-71.117L164.961 8.879C188.359-7 220.199-.902 236.078 22.496zm0 0" fill="#f29c1f"/><path d="M85.332 136.5c0 9.426-7.64 17.066-17.066 17.066s-17.067-7.64-17.067-17.066 7.64-17.066 17.067-17.066 17.066 7.64 17.066 17.066zm0 0M213.332 51.164c0 9.426-7.64 17.066-17.066 17.066s-17.067-7.64-17.067-17.066c0-9.426 7.64-17.066 17.067-17.066s17.066 7.64 17.066 17.066zm0 0" fill="#e57e25"/><path d="M375.465 119.434c0 9.425-7.64 17.066-17.067 17.066-9.425 0-17.066-7.64-17.066-17.066 0-9.426 7.64-17.067 17.066-17.067 9.426 0 17.067 7.64 17.067 17.067zm0 0M196.273 307.164a8.505 8.505 0 0 1-6.671-3.203l-68.27-85.332a8.536 8.536 0 0 1 5.387-13.766 8.535 8.535 0 0 1 7.949 3.106l68.266 85.336a8.537 8.537 0 0 1 1.027 9.023 8.533 8.533 0 0 1-7.688 4.836zm0 0" fill="#d25627"/><path d="M93.875 110.898c-3.71.004-7-2.39-8.137-5.925a8.54 8.54 0 0 1 3.168-9.555l59.735-42.664c3.836-2.738 9.168-1.852 11.906 1.988a8.532 8.532 0 0 1-1.988 11.903l-59.735 42.668a8.505 8.505 0 0 1-4.949 1.585zm0 0M110.941 136.5c-3.71.004-7-2.39-8.136-5.926a8.536 8.536 0 0 1 3.172-9.554l59.73-42.668a8.537 8.537 0 0 1 11.906 1.988 8.537 8.537 0 0 1-1.988 11.906l-59.734 42.664a8.48 8.48 0 0 1-4.95 1.59zm0 0" fill="#e57e25"/><path d="M204.8 341.3h102.4c18.85 0 34.132 15.282 34.132 34.134v68.265H170.668v-68.265c0-18.852 15.281-34.133 34.133-34.133zm0 0" fill="#f29c1f"/><path d="M238.934 392.5c0 9.426-7.641 17.066-17.067 17.066s-17.066-7.64-17.066-17.066 7.64-17.066 17.066-17.066c9.426 0 17.067 7.64 17.067 17.066zm0 0M307.2 392.5c0 9.426-7.641 17.066-17.067 17.066s-17.067-7.64-17.067-17.066 7.641-17.066 17.067-17.066 17.066 7.64 17.066 17.066zm0 0" fill="#e57e25"/><path d="M17.066 443.7h477.868v51.198H17.066zm0 0" fill="#35495e"/><g fill="#285680"><path d="M34.133 486.367a17.007 17.007 0 0 1-9.543-2.918 17.139 17.139 0 0 1-6.184-7.508 16.99 16.99 0 0 1-.992-3.203 17.25 17.25 0 0 1 0-6.879 16.952 16.952 0 0 1 2.566-6.101 17.123 17.123 0 0 1 7.512-6.184 17.002 17.002 0 0 1 6.64-1.344 16.99 16.99 0 0 1 9.543 2.918 17.139 17.139 0 0 1 6.184 7.508c.438 1.031.77 2.106.996 3.203.23 1.133.344 2.286.344 3.442a16.96 16.96 0 0 1-2.914 9.54 17.086 17.086 0 0 1-10.71 7.179c-1.134.23-2.286.347-3.442.347zm0 0M145.066 486.367c-1.156 0-2.308-.117-3.441-.347a17.018 17.018 0 0 1-6.102-2.57 17.139 17.139 0 0 1-6.183-7.509 16.99 16.99 0 0 1-.992-3.203 17.25 17.25 0 0 1 0-6.879 16.952 16.952 0 0 1 2.566-6.101 17.101 17.101 0 0 1 10.715-7.18 17.191 17.191 0 0 1 6.879 0c2.18.45 4.254 1.32 6.101 2.57a17.139 17.139 0 0 1 6.184 7.508 16.71 16.71 0 0 1 .992 3.203c.235 1.133.348 2.286.348 3.442 0 1.152-.113 2.304-.348 3.437a17.086 17.086 0 0 1-10.074 12.285 17.04 17.04 0 0 1-6.645 1.344zm0 0M366.934 486.367c-1.157 0-2.309-.117-3.442-.347a17.018 17.018 0 0 1-6.101-2.57 17.139 17.139 0 0 1-6.184-7.509 16.71 16.71 0 0 1-.992-3.203 16.966 16.966 0 0 1-.348-3.437c0-1.156.113-2.309.348-3.442a16.952 16.952 0 0 1 2.566-6.101 17.112 17.112 0 0 1 7.508-6.184 17.04 17.04 0 0 1 6.645-1.344 17.018 17.018 0 0 1 9.543 2.918 17.139 17.139 0 0 1 6.183 7.508 16.99 16.99 0 0 1 .992 3.203c.23 1.133.348 2.286.348 3.442a17.25 17.25 0 0 1-.348 3.437 16.952 16.952 0 0 1-2.566 6.102 17.075 17.075 0 0 1-10.715 7.18c-1.129.23-2.281.347-3.437.347zm0 0M256 486.367c-1.156 0-2.309-.117-3.441-.347a17.018 17.018 0 0 1-6.102-2.57 17.139 17.139 0 0 1-6.184-7.509 16.99 16.99 0 0 1-.992-3.203 17.25 17.25 0 0 1 0-6.879 16.952 16.952 0 0 1 2.567-6.101 17.101 17.101 0 0 1 10.714-7.18 17.191 17.191 0 0 1 6.88 0c2.18.45 4.253 1.32 6.101 2.57a17.139 17.139 0 0 1 6.184 7.508 16.99 16.99 0 0 1 .992 3.203 17.25 17.25 0 0 1 0 6.879 16.952 16.952 0 0 1-2.567 6.102 17.075 17.075 0 0 1-10.715 7.18c-1.128.23-2.28.347-3.437.347zm0 0M477.867 486.367a16.99 16.99 0 0 1-9.543-2.918 17.139 17.139 0 0 1-6.183-7.508 17.002 17.002 0 0 1-.996-3.203 17.245 17.245 0 0 1-.344-3.437c0-1.156.113-2.309.344-3.442a17.112 17.112 0 0 1 10.078-12.285 17.091 17.091 0 0 1 3.203-.996 17.193 17.193 0 0 1 6.879 0c2.183.45 4.257 1.32 6.105 2.57a17.139 17.139 0 0 1 6.184 7.508 16.99 16.99 0 0 1 .992 3.203c.23 1.133.348 2.286.348 3.442a17.25 17.25 0 0 1-.348 3.437 16.952 16.952 0 0 1-2.566 6.102 17.097 17.097 0 0 1-10.715 7.18c-1.13.23-2.282.347-3.438.347zm0 0"/></g><path d="M477.867 503.434H34.133C15.28 503.434 0 488.148 0 469.3c0-18.852 15.281-34.137 34.133-34.137h443.734c18.852 0 34.133 15.285 34.133 34.137 0 18.847-15.281 34.133-34.133 34.133zM34.133 452.23c-9.426 0-17.067 7.645-17.067 17.07s7.641 17.067 17.067 17.067h443.734c9.426 0 17.067-7.64 17.067-17.066s-7.641-17.07-17.067-17.07zm0 0" fill="#2c2f38"/><path d="M93.867 477.832h-8.535a8.532 8.532 0 0 1-8.531-8.531 8.533 8.533 0 0 1 8.531-8.535h8.535c4.711 0 8.531 3.82 8.531 8.535 0 4.71-3.82 8.531-8.53 8.531zm0 0M204.8 477.832h-8.534a8.532 8.532 0 0 1-8.532-8.531 8.533 8.533 0 0 1 8.532-8.535h8.535c4.71 0 8.531 3.82 8.531 8.535 0 4.71-3.82 8.531-8.531 8.531zm0 0M315.734 477.832H307.2a8.532 8.532 0 0 1-8.531-8.531 8.533 8.533 0 0 1 8.531-8.535h8.535c4.711 0 8.532 3.82 8.532 8.535 0 4.71-3.82 8.531-8.532 8.531zm0 0M426.668 477.832h-8.535a8.532 8.532 0 0 1-8.531-8.531 8.533 8.533 0 0 1 8.53-8.535h8.536c4.71 0 8.531 3.82 8.531 8.535 0 4.71-3.82 8.531-8.531 8.531zm0 0" fill="#4482c3"/></svg>