<svg xmlns="http://www.w3.org/2000/svg" viewBox="0 0 512 512"><path d="M494.345 485.517H17.655C7.904 485.517 0 477.613 0 467.862V61.793c0-9.751 7.904-17.655 17.655-17.655h476.69c9.751 0 17.655 7.904 17.655 17.655v406.069c0 9.75-7.905 17.655-17.655 17.655z" fill="#eff2fa"/><path d="M512 132.414H0V61.793c0-9.751 7.904-17.655 17.655-17.655h476.69c9.751 0 17.655 7.904 17.655 17.655v70.621z" fill="#ff6464"/><path fill="#e4eaf6" d="M0 132.414h512v17.655H0z"/><circle cx="75.034" cy="83.862" r="26.483" fill="#d2555a"/><path d="M75.034 97.103c-7.313 0-13.241-5.929-13.241-13.241V39.724c0-7.313 5.929-13.241 13.241-13.241 7.313 0 13.241 5.929 13.241 13.241v44.138c.001 7.313-5.928 13.241-13.241 13.241z" fill="#c7cfe2"/><path d="M75.034 70.621c-7.313 0-13.241-5.929-13.241-13.241v26.483c0 7.313 5.929 13.241 13.241 13.241 7.313 0 13.241-5.929 13.241-13.241V57.379c.001 7.313-5.928 13.242-13.241 13.242z" fill="#afb9d2"/><circle cx="436.966" cy="83.862" r="26.483" fill="#d2555a"/><path d="M436.966 97.103c-7.313 0-13.241-5.929-13.241-13.241V39.724c0-7.313 5.929-13.241 13.241-13.241 7.313 0 13.241 5.929 13.241 13.241v44.138c0 7.313-5.929 13.241-13.241 13.241z" fill="#c7cfe2"/><path d="M436.966 70.621c-7.313 0-13.241-5.929-13.241-13.241v26.483c0 7.313 5.929 13.241 13.241 13.241s13.241-5.929 13.241-13.241V57.379c0 7.313-5.929 13.242-13.241 13.242z" fill="#afb9d2"/><g fill="#ff6464"><path d="M235.092 311.389c-.951-.22-1.045-1.433-.135-1.786 20.881-8.087 33.37-25.999 33.37-49.023 0-32.557-28.322-56.185-67.334-56.185-33.768 0-59.531 17.66-67.238 46.091-.99 3.628-.249 7.412 2.019 10.377a11.55 11.55 0 0 0 9.242 4.569c5.284 0 9.918-3.616 11.261-8.796 4.851-18.826 21.645-30.518 43.83-30.518 26.649 0 43.862 14.507 43.862 36.957 0 22.711-18.396 38.573-44.732 38.573h-16.143c-5.832 0-10.57 4.738-10.57 10.566 0 5.827 4.738 10.57 10.57 10.57h17.013c33.068 0 52.807 15.46 52.807 41.357 0 23.797-21.405 41.067-50.901 41.067-25.442 0-45.133-12.395-50.168-31.584-1.408-5.325-6.098-9.045-11.406-9.045-3.651 0-7.022 1.657-9.267 4.545-2.284 2.952-3.057 6.737-2.115 10.38 7.448 28.809 36.14 47.422 73.101 47.422 42.905 0 75.257-27.244 75.257-63.372.002-26.675-16.228-46.134-42.323-52.165zM361.297 207.48a29.389 29.389 0 0 0-16.546 5.132c-6.177 4.215-15.17 10.465-23.874 16.514-8.687 6.033-17.077 11.864-22.072 15.258a11.022 11.022 0 0 0-4.834 9.113c0 4.103 2.252 7.839 5.871 9.757 3.644 1.939 7.883 1.709 11.309-.623 8.813-5.99 32.358-22.553 38.626-26.967.666-.47 1.551.032 1.551.847v175.306c0 6.472 5.269 11.736 11.736 11.736 6.467 0 11.736-5.265 11.736-11.736v-190.95c.002-7.423-6.079-13.414-13.503-13.387z"/></g></svg>